<svg width="48" height="48" viewBox="0 0 48 48" fill="currentColor" xmlns="http://www.w3.org/2000/svg">
<path fill-rule="evenodd" clip-rule="evenodd" d="M25.3646 31.1767L42 36L37.8594 19.1817L32.6941 24.1404L24.3621 15.4612C24.0792 15.1666 23.6884 15 23.28 15C22.8716 15 22.4808 15.1666 22.1979 15.4612L16.08 21.834L7.08208 12.4612C6.50837 11.8636 5.55882 11.8442 4.9612 12.4179C4.36359 12.9916 4.34421 13.9412 4.91792 14.5388L14.9979 25.0388C15.2808 25.3334 15.6716 25.5 16.08 25.5C16.4884 25.5 16.8792 25.3334 17.1621 25.0388L23.28 18.666L30.5299 26.218L25.3646 31.1767Z" fill="currentColor"/>
</svg>
