<svg width="48" height="48" viewBox="0 0 48 48" fill="currentColor" xmlns="http://www.w3.org/2000/svg">
<path fill-rule="evenodd" clip-rule="evenodd" d="M25.3646 16.8233L42 12L37.8594 28.8183L32.6941 23.8596L24.3621 32.5388C24.0792 32.8334 23.6884 33 23.28 33C22.8716 33 22.4808 32.8334 22.1979 32.5388L16.08 26.166L7.08208 35.5388C6.50837 36.1364 5.55882 36.1558 4.9612 35.5821C4.36359 35.0084 4.34421 34.0588 4.91792 33.4612L14.9979 22.9612C15.2808 22.6666 15.6716 22.5 16.08 22.5C16.4884 22.5 16.8792 22.6666 17.1621 22.9612L23.28 29.334L30.5299 21.782L25.3646 16.8233Z" fill="currentColor"/>
</svg>
