<svg width="48" height="48" viewBox="0 0 48 48" fill="currentColor" xmlns="http://www.w3.org/2000/svg">
<path d="M13.998 4.00098H11.998C5.99805 4.00098 3.99805 7.58098 3.99805 12.001V14.001V42.001C3.99805 43.661 5.87805 44.601 7.19805 43.601L10.618 41.041C11.418 40.441 12.538 40.521 13.258 41.241L16.578 44.581C17.358 45.361 18.638 45.361 19.418 44.581L22.778 41.221C23.478 40.521 24.598 40.441 25.378 41.041L28.798 43.601C30.118 44.581 31.998 43.641 31.998 42.001V8.00098C31.998 5.80098 33.798 4.00098 35.998 4.00098H13.998ZM22.498 27.501H13.498C12.678 27.501 11.998 26.821 11.998 26.001C11.998 25.181 12.678 24.501 13.498 24.501H22.498C23.318 24.501 23.998 25.181 23.998 26.001C23.998 26.821 23.318 27.501 22.498 27.501ZM23.998 19.501H11.998C11.178 19.501 10.498 18.821 10.498 18.001C10.498 17.181 11.178 16.501 11.998 16.501H23.998C24.818 16.501 25.498 17.181 25.498 18.001C25.498 18.821 24.818 19.501 23.998 19.501Z" fill="currentColor"/>
<path d="M36.022 4.00098V7.00098C37.342 7.00098 38.602 7.54098 39.522 8.44098C40.482 9.42098 41.002 10.681 41.002 12.001V16.841C41.002 18.321 40.342 19.001 38.842 19.001H35.002V8.02098C35.002 7.46098 35.462 7.00098 36.022 7.00098V4.00098ZM36.022 4.00098C33.802 4.00098 32.002 5.80098 32.002 8.02098V22.001H38.842C42.002 22.001 44.002 20.001 44.002 16.841V12.001C44.002 9.80098 43.102 7.80098 41.662 6.34098C40.202 4.90098 38.222 4.02098 36.022 4.00098C36.042 4.00098 36.022 4.00098 36.022 4.00098Z" fill="currentColor"/>
</svg>
