<svg width="48" height="48" viewBox="0 0 48 48" fill="none" xmlns="http://www.w3.org/2000/svg">
<path d="M27.1085 15.2186V19.3637H25.4723V15.2186C25.4723 14.9241 25.2105 14.7822 25.0359 14.7822C24.9814 14.7822 24.9268 14.7932 24.8723 14.815L16.222 18.0766C15.6439 18.2947 15.273 18.8401 15.273 19.4619V20.1928C14.2803 20.9345 13.6367 22.1236 13.6367 23.4653V19.4619C13.6367 18.1638 14.433 17.0075 15.6439 16.5494L24.3051 13.2769C24.5451 13.1896 24.7959 13.146 25.0359 13.146C26.1268 13.146 27.1085 14.0296 27.1085 15.2186Z" fill="currentColor"/>
<path d="M34.3634 26.7271V27.8179C34.3634 28.1124 34.1344 28.3524 33.8289 28.3633H32.2363C31.6582 28.3633 31.1346 27.9379 31.0909 27.3706C31.0582 27.0325 31.1891 26.7161 31.4073 26.498C31.6036 26.2907 31.8763 26.1816 32.1709 26.1816H33.818C34.1344 26.1925 34.3634 26.4325 34.3634 26.7271Z" fill="currentColor"/>
<path d="M32.1591 25.0361H33.2717C33.8717 25.0361 34.3626 24.5452 34.3626 23.9453V23.4653C34.3626 21.2073 32.519 19.3638 30.261 19.3638H17.7383C16.811 19.3638 15.9602 19.6692 15.273 20.1928C14.2803 20.9346 13.6367 22.1236 13.6367 23.4653V30.8066C13.6367 33.0646 15.4802 34.9081 17.7383 34.9081H30.261C32.519 34.9081 34.3626 33.0646 34.3626 30.8066V30.5994C34.3626 29.9994 33.8717 29.5085 33.2717 29.5085H32.3227C31.2755 29.5085 30.2719 28.8649 29.9992 27.8505C29.7701 27.0214 30.0429 26.2251 30.5883 25.6906C30.9919 25.2761 31.5482 25.0361 32.1591 25.0361ZM26.1813 24.8179H18.5455C18.0982 24.8179 17.7273 24.4471 17.7273 23.9998C17.7273 23.5526 18.0982 23.1817 18.5455 23.1817H26.1813C26.6285 23.1817 26.9994 23.5526 26.9994 23.9998C26.9994 24.4471 26.6285 24.8179 26.1813 24.8179Z" fill="currentColor"/>
</svg>
