<svg width="48" height="48" viewBox="0 0 48 48" fill="none" xmlns="http://www.w3.org/2000/svg">
<path d="M30.5894 25.691C30.1313 26.1383 29.8694 26.7819 29.9349 27.4692C30.0331 28.6474 31.1131 29.5092 32.2913 29.5092H34.364V30.8074C34.364 33.0656 32.5204 34.9092 30.2622 34.9092H17.7385C15.4804 34.9092 13.6367 33.0656 13.6367 30.8074V23.4656C13.6367 21.2074 15.4804 19.3638 17.7385 19.3638H30.2622C32.5204 19.3638 34.364 21.2074 34.364 23.4656V25.0365H32.1604C31.5494 25.0365 30.9931 25.2765 30.5894 25.691Z" stroke="currentColor" stroke-width="1.63636" stroke-linecap="round" stroke-linejoin="round"/>
<path d="M13.6367 24.4472V19.4618C13.6367 18.1637 14.4331 17.0072 15.644 16.5491L24.3058 13.2763C25.6585 12.7636 27.1094 13.7673 27.1094 15.2182V19.3636" stroke="currentColor" stroke-width="1.63636" stroke-linecap="round" stroke-linejoin="round"/>
<path d="M35.5192 26.1493V28.3966C35.5192 28.9966 35.0392 29.4875 34.4283 29.5093H32.2901C31.112 29.5093 30.032 28.6475 29.9338 27.4693C29.8683 26.7821 30.1301 26.1384 30.5883 25.6911C30.992 25.2766 31.5483 25.0366 32.1592 25.0366H34.4283C35.0392 25.0584 35.5192 25.5493 35.5192 26.1493Z" stroke="currentColor" stroke-width="1.63636" stroke-linecap="round" stroke-linejoin="round"/>
<path d="M18.5449 24H26.1813" stroke="currentColor" stroke-width="1.63636" stroke-linecap="round" stroke-linejoin="round"/>
</svg>
