<svg width="48" height="48" viewBox="0 0 48 48" fill="currentColor" xmlns="http://www.w3.org/2000/svg">
<path d="M41.8007 11.6621H6.19985C4.10657 11.6621 2.40355 13.3651 2.40355 15.4584V21.4479C2.18792 27.4529 13.061 29.9755 19.6927 30.3129C19.6411 30.0513 19.6135 29.7813 19.6135 29.5047V26.5942C19.6135 25.8954 20.18 25.3288 20.8789 25.3288H27.1217C27.8206 25.3288 28.3871 25.8954 28.3871 26.5942V29.5047C28.3871 29.7812 28.3595 30.0513 28.3079 30.3128C34.9358 29.9786 45.8192 27.446 45.597 21.4479V15.4584C45.597 13.365 43.8941 11.6621 41.8007 11.6621Z" fill="currentColor"/>
<path d="M15.4781 8.93941C15.4781 8.13822 16.1299 7.48644 16.9311 7.48644H31.0665C31.8676 7.48644 32.5194 8.13822 32.5194 8.93941V9.1315H35.0503V8.93941C35.0503 6.7427 33.2631 4.95557 31.0665 4.95557H16.9311C14.7344 4.95557 12.9473 6.7427 12.9473 8.93941V9.1315H15.4781V8.93941Z" fill="currentColor"/>
<path d="M26.5771 32.9437C25.9042 33.4078 25.0896 33.6804 24.2122 33.6804H23.7904C22.913 33.6804 22.0984 33.4078 21.4256 32.9437C16.6679 32.7512 12.2583 32.0273 8.80487 30.8569C6.95564 30.2301 5.38009 29.4737 4.0918 28.5959V39.2483C4.0918 41.3416 5.79482 43.0446 7.8881 43.0446H40.1145C42.2078 43.0446 43.9108 41.3416 43.9108 39.2483V28.5957C38.8892 31.7631 33.3129 32.5413 26.5771 32.9437Z" fill="currentColor"/>
<path d="M23.7896 31.15H24.2114C25.1218 31.1566 25.8611 30.3875 25.8565 29.5049V27.8599H22.1445V29.5049C22.1445 29.8266 22.2553 30.1791 22.4421 30.4457C22.7399 30.8708 23.2324 31.15 23.7896 31.15Z" fill="currentColor"/>
</svg>
