<svg width="27" height="27" viewBox="0 0 27 27" fill="none" xmlns="http://www.w3.org/2000/svg">
<path d="M24.1118 18.4249C23.7488 21.3509 21.3508 23.7489 18.4248 24.1119C16.6538 24.3319 15.0038 23.8479 13.7168 22.9019C12.9798 22.3629 13.1558 21.2189 14.0358 20.9549C17.3468 19.9539 19.9538 17.3359 20.9658 14.0249C21.2298 13.1559 22.3738 12.9799 22.9128 13.7059C23.8478 15.0039 24.3318 16.6539 24.1118 18.4249Z" fill="#D2F3D4"/>
<path d="M10.9863 2.2002C6.13527 2.2002 2.19727 6.1382 2.19727 10.9892C2.19727 15.8402 6.13527 19.7782 10.9863 19.7782C15.8373 19.7782 19.7753 15.8402 19.7753 10.9892C19.7643 6.1382 15.8373 2.2002 10.9863 2.2002ZM9.95227 9.7572L12.6033 10.6812C13.5603 11.0222 14.0223 11.6932 14.0223 12.7272C14.0223 13.9152 13.0763 14.8942 11.9213 14.8942H11.8223V14.9492C11.8223 15.4002 11.4483 15.7742 10.9973 15.7742C10.5463 15.7742 10.1723 15.4002 10.1723 14.9492V14.8832C8.95127 14.8282 7.97227 13.8052 7.97227 12.5292C7.97227 12.0782 8.34627 11.7042 8.79727 11.7042C9.24827 11.7042 9.62227 12.0782 9.62227 12.5292C9.62227 12.9252 9.90827 13.2442 10.2603 13.2442H11.9103C12.1633 13.2442 12.3613 13.0132 12.3613 12.7272C12.3613 12.3422 12.2953 12.3202 12.0423 12.2322L9.39127 11.3082C8.44527 10.9782 7.97227 10.3072 7.97227 9.2622C7.97227 8.0742 8.91827 7.0952 10.0733 7.0952H10.1723V7.0512C10.1723 6.6002 10.5463 6.2262 10.9973 6.2262C11.4483 6.2262 11.8223 6.6002 11.8223 7.0512V7.1172C13.0433 7.17219 14.0223 8.1952 14.0223 9.4712C14.0223 9.92219 13.6483 10.2962 13.1973 10.2962C12.7463 10.2962 12.3723 9.92219 12.3723 9.4712C12.3723 9.07519 12.0863 8.7562 11.7343 8.7562H10.0843C9.83127 8.7562 9.63327 8.9872 9.63327 9.2732C9.62227 9.6472 9.68827 9.6692 9.95227 9.7572Z" fill="#F5E7D8"/>
</svg>
