<svg width="48" height="48" viewBox="0 0 48 48" fill="none" xmlns="http://www.w3.org/2000/svg">
<path d="M15.998 22.7999C15.998 24.3399 17.198 25.5999 18.658 25.5999H21.658C22.938 25.5999 23.978 24.4999 23.978 23.1599C23.978 21.6999 23.338 21.1799 22.398 20.8399L17.598 19.1599C16.638 18.8199 15.998 18.2999 15.998 16.8399C15.998 15.4999 17.038 14.3999 18.318 14.3999H21.318C22.798 14.4199 23.998 15.6599 23.998 17.1999" stroke="#888888" stroke-width="3" stroke-linecap="round" stroke-linejoin="round"/>
<path d="M20.002 25.7002V27.1802" stroke="#888888" stroke-width="3" stroke-linecap="round" stroke-linejoin="round"/>
<path d="M20.002 12.8203V14.3803" stroke="#888888" stroke-width="3" stroke-linecap="round" stroke-linejoin="round"/>
<path d="M19.978 35.9595C28.8036 35.9595 35.958 28.805 35.958 19.9795C35.958 11.154 28.8036 3.99951 19.978 3.99951C11.1525 3.99951 3.99805 11.154 3.99805 19.9795C3.99805 28.805 11.1525 35.9595 19.978 35.9595Z" stroke="#888888" stroke-width="3" stroke-linecap="round" stroke-linejoin="round"/>
<path d="M25.959 39.76C27.759 42.3 30.699 43.96 34.059 43.96C39.519 43.96 43.959 39.52 43.959 34.06C43.959 30.74 42.319 27.8 39.819 26" stroke="#888888" stroke-width="3" stroke-linecap="round" stroke-linejoin="round"/>
</svg>
