<svg width="18" height="18" viewBox="0 0 18 18" fill="none" xmlns="http://www.w3.org/2000/svg">
<path d="M8.02148 1.45898H6.56315C2.91732 1.45898 1.45898 2.91732 1.45898 6.56315V10.9382C1.45898 14.584 2.91732 16.0423 6.56315 16.0423H10.9382C14.584 16.0423 16.0423 14.584 16.0423 10.9382V9.47982" stroke="currentColor" stroke-width="1.25" stroke-linecap="round" stroke-linejoin="round"/>
<path d="M11.6966 2.20233L5.95077 7.94816C5.73202 8.16691 5.51327 8.59712 5.46952 8.91066L5.15597 11.1055C5.03931 11.9002 5.60077 12.4544 6.39556 12.345L8.59035 12.0315C8.8966 11.9877 9.32681 11.769 9.55285 11.5502L15.2987 5.80441C16.2903 4.81275 16.757 3.66066 15.2987 2.20233C13.8403 0.743995 12.6883 1.21066 11.6966 2.20233Z" stroke="currentColor" stroke-width="1.25" stroke-miterlimit="10" stroke-linecap="round" stroke-linejoin="round"/>
<path d="M10.8711 3.02637C11.3596 4.76908 12.7232 6.13262 14.4732 6.62845" stroke="currentColor" stroke-width="1.25" stroke-miterlimit="10" stroke-linecap="round" stroke-linejoin="round"/>
</svg>
