<svg width="48" height="48" viewBox="0 0 48 48" fill="currentColor" xmlns="http://www.w3.org/2000/svg">
<path d="M42.302 12.339C41.482 11.899 39.762 11.439 37.422 13.079L34.482 15.159C34.262 8.93902 31.562 6.49902 25.002 6.49902H13.002C6.16195 6.49902 3.50195 9.15902 3.50195 15.999V31.999C3.50195 36.599 6.00195 41.499 13.002 41.499H25.002C31.562 41.499 34.262 39.059 34.482 32.839L37.422 34.919C38.662 35.799 39.742 36.079 40.602 36.079C41.342 36.079 41.922 35.859 42.302 35.659C43.122 35.239 44.502 34.099 44.502 31.239V16.759C44.502 13.899 43.122 12.759 42.302 12.339ZM22.002 22.759C19.942 22.759 18.242 21.079 18.242 18.999C18.242 16.919 19.942 15.239 22.002 15.239C24.062 15.239 25.762 16.919 25.762 18.999C25.762 21.079 24.062 22.759 22.002 22.759Z" fill="currentColor"/>
</svg>
