<svg width="48" height="48" viewBox="0 0 48 48" fill="currentColor" xmlns="http://www.w3.org/2000/svg">
<path d="M24.7977 12.7993H2.39766C1.95583 12.7993 1.59766 13.1575 1.59766 13.5993V14.3993C1.59766 14.8411 1.95583 15.1993 2.39766 15.1993H24.7977C25.2395 15.1993 25.5977 14.8411 25.5977 14.3993V13.5993C25.5977 13.1575 25.2395 12.7993 24.7977 12.7993Z" fill="#888888"/>
<path d="M22.9254 10.0425C22.8594 9.90928 22.7574 9.79722 22.631 9.71902C22.5046 9.64082 22.3588 9.59963 22.2102 9.6001H4.98776C4.83911 9.59963 4.69331 9.64082 4.56689 9.71902C4.44048 9.79722 4.33851 9.90928 4.27256 10.0425L3.69336 11.2001H23.5046L22.9254 10.0425Z" fill="currentColor"/>
<path d="M7.02172 46.4003H18.1785C17.494 45.8018 16.9453 45.0639 16.5692 44.2361C16.1931 43.4082 15.9982 42.5096 15.9977 41.6003V40.8003C15.9989 40.4508 16.0769 40.1058 16.2262 39.7898C16.3755 39.4737 16.5925 39.1944 16.8617 38.9715C16.3051 38.3825 15.9958 37.6022 15.9977 36.7918C15.9997 35.9814 16.3127 35.2026 16.8721 34.6163C16.6277 34.4201 16.4251 34.1768 16.2765 33.9009C16.1278 33.6249 16.036 33.3219 16.0065 33.0099C15.9788 32.6825 16.0195 32.3529 16.126 32.0421C16.2324 31.7313 16.4023 31.446 16.6249 31.2043C16.2233 30.7665 15.9996 30.1944 15.9977 29.6003C16.0017 27.3102 16.7608 25.0853 18.1576 23.2705C19.5543 21.4556 21.5106 20.1521 23.7233 19.5619L23.9345 16.8003H3.26172L5.42732 44.9227C5.45977 45.3239 5.64159 45.6983 5.93682 45.9719C6.23205 46.2455 6.6192 46.3984 7.02172 46.4003Z" fill="currentColor"/>
<path d="M46.3977 40.801C46.3977 40.5888 46.3134 40.3853 46.1633 40.2353C46.0133 40.0853 45.8098 40.001 45.5977 40.001H18.3977C18.1855 40.001 17.982 40.0853 17.832 40.2353C17.6819 40.3853 17.5977 40.5888 17.5977 40.801V41.601C17.5989 42.8736 18.105 44.0938 19.0049 44.9937C19.9048 45.8936 21.125 46.3997 22.3977 46.401H41.5977C42.8703 46.3997 44.0905 45.8936 44.9904 44.9937C45.8903 44.0938 46.3964 42.8736 46.3977 41.601V40.801Z" fill="currentColor"/>
<path d="M14.401 7.99965V3.67965C14.401 3.50591 14.3443 3.33691 14.2397 3.1982C14.135 3.0595 13.9881 2.95864 13.821 2.91085L9.28104 1.61165C9.2049 1.59099 9.1237 1.60083 9.05469 1.63907C8.98568 1.67731 8.93429 1.74094 8.91144 1.81645L8.63624 2.78045C8.61475 2.85673 8.62431 2.9384 8.66283 3.00765C8.70135 3.0769 8.76571 3.12809 8.84184 3.15005L12.225 4.11645C12.3913 4.16496 12.5374 4.26614 12.6413 4.40478C12.7452 4.54341 12.8012 4.71202 12.801 4.88525V7.99965H14.401Z" fill="currentColor"/>
<path d="M44.7977 35.2012H42.3321C42.038 35.2016 41.7527 35.3014 41.5225 35.4844L39.4009 37.1788C39.0599 37.4528 38.6355 37.6022 38.1981 37.6022C37.7606 37.6022 37.3362 37.4528 36.9953 37.1788L34.8729 35.4836C34.6425 35.3009 34.3572 35.2014 34.0633 35.2012H19.1977C18.7733 35.2012 18.3663 35.3697 18.0663 35.6698C17.7662 35.9699 17.5977 36.3768 17.5977 36.8012C17.5977 37.2255 17.7662 37.6325 18.0663 37.9325C18.3663 38.2326 18.7733 38.4012 19.1977 38.4012H44.7977C45.222 38.4012 45.629 38.2326 45.929 37.9325C46.2291 37.6325 46.3977 37.2255 46.3977 36.8012C46.3977 36.3768 46.2291 35.9699 45.929 35.6698C45.629 35.3697 45.222 35.2012 44.7977 35.2012Z" fill="currentColor"/>
<path d="M37.5977 20.7998H26.3977C24.0646 20.8026 21.8279 21.7306 20.1782 23.3803C18.5284 25.03 17.6004 27.2667 17.5977 29.5998C17.5977 29.812 17.6819 30.0155 17.832 30.1655C17.982 30.3155 18.1855 30.3998 18.3977 30.3998H45.5977C45.8098 30.3998 46.0133 30.3155 46.1633 30.1655C46.3134 30.0155 46.3977 29.812 46.3977 29.5998C46.3949 27.2667 45.4669 25.03 43.8172 23.3803C42.1674 21.7306 39.9307 20.8026 37.5977 20.7998ZM26.3977 27.1998H25.5977C25.3855 27.1998 25.182 27.1155 25.032 26.9655C24.8819 26.8155 24.7977 26.612 24.7977 26.3998C24.7977 26.1876 24.8819 25.9841 25.032 25.8341C25.182 25.6841 25.3855 25.5998 25.5977 25.5998H26.3977C26.6098 25.5998 26.8133 25.6841 26.9633 25.8341C27.1134 25.9841 27.1977 26.1876 27.1977 26.3998C27.1977 26.612 27.1134 26.8155 26.9633 26.9655C26.8133 27.1155 26.6098 27.1998 26.3977 27.1998ZM28.7977 23.9998H27.9977C27.7855 23.9998 27.582 23.9155 27.432 23.7655C27.2819 23.6155 27.1977 23.412 27.1977 23.1998C27.1977 22.9876 27.2819 22.7841 27.432 22.6341C27.582 22.4841 27.7855 22.3998 27.9977 22.3998H28.7977C29.0098 22.3998 29.2133 22.4841 29.3633 22.6341C29.5134 22.7841 29.5977 22.9876 29.5977 23.1998C29.5977 23.412 29.5134 23.6155 29.3633 23.7655C29.2133 23.9155 29.0098 23.9998 28.7977 23.9998ZM33.5977 26.3998H32.7977C32.5855 26.3998 32.382 26.3155 32.232 26.1655C32.0819 26.0155 31.9977 25.812 31.9977 25.5998C31.9977 25.3876 32.0819 25.1841 32.232 25.0341C32.382 24.8841 32.5855 24.7998 32.7977 24.7998H33.5977C33.8098 24.7998 34.0133 24.8841 34.1633 25.0341C34.3134 25.1841 34.3977 25.3876 34.3977 25.5998C34.3977 25.812 34.3134 26.0155 34.1633 26.1655C34.0133 26.3155 33.8098 26.3998 33.5977 26.3998Z" fill="currentColor"/>
<path d="M18.4005 32C18.2973 31.9992 18.195 32.0191 18.0997 32.0585C18.0043 32.098 17.9178 32.1561 17.8453 32.2296C17.7589 32.3117 17.6924 32.4125 17.6508 32.5242C17.6092 32.636 17.5937 32.7557 17.6053 32.8744C17.6393 33.0823 17.7478 33.2707 17.9107 33.4042C18.0736 33.5378 18.2796 33.6074 18.4901 33.6H34.0661C34.723 33.601 35.3603 33.8243 35.8741 34.2336L37.9957 35.9272C38.054 35.9737 38.1263 35.9991 38.2009 35.9991C38.2755 35.9991 38.3479 35.9737 38.4061 35.9272L40.5269 34.2344C41.0406 33.8248 41.6779 33.6012 42.3349 33.6H45.6005C45.7036 33.6009 45.8058 33.5811 45.9011 33.5416C45.9964 33.5022 46.0827 33.4439 46.1549 33.3704C46.2407 33.2888 46.3069 33.1888 46.3484 33.0779C46.39 32.9671 46.4059 32.8483 46.3949 32.7304C46.3619 32.5218 46.2538 32.3325 46.091 32.198C45.9283 32.0635 45.722 31.9931 45.5109 32H18.4005Z" fill="currentColor"/>
</svg>
