<svg width="48" height="48" viewBox="0 0 48 48" fill="currentColor" xmlns="http://www.w3.org/2000/svg">
<path d="M44.334 17.6719H43.0684V16.4063C43.0684 15.7067 42.5023 15.1406 41.8028 15.1406C41.1032 15.1406 40.5371 15.7067 40.5371 16.4063V17.6719H39.2715C38.5719 17.6719 38.0059 18.238 38.0059 18.9375C38.0059 19.6371 38.5719 20.2032 39.2715 20.2032H40.5371V21.4688C40.5371 22.1683 41.1032 22.7344 41.8028 22.7344C42.5023 22.7344 43.0684 22.1683 43.0684 21.4688V20.2032H44.334C45.0336 20.2032 45.5997 19.6371 45.5997 18.9375C45.5997 18.238 45.0336 17.6719 44.334 17.6719Z" fill="currentColor"/>
<path d="M39.1875 12.6094C39.8865 12.6094 40.4531 12.0427 40.4531 11.3438C40.4531 10.6448 39.8865 10.0781 39.1875 10.0781C38.4885 10.0781 37.9219 10.6448 37.9219 11.3438C37.9219 12.0427 38.4885 12.6094 39.1875 12.6094Z" fill="currentColor"/>
<path d="M34.125 20.2031C34.824 20.2031 35.3906 19.6365 35.3906 18.9375C35.3906 18.2385 34.824 17.6719 34.125 17.6719C33.426 17.6719 32.8594 18.2385 32.8594 18.9375C32.8594 19.6365 33.426 20.2031 34.125 20.2031Z" fill="currentColor"/>
<path d="M23.1051 33.2302C23.5995 32.7358 24.4005 32.7358 24.8948 33.2302L25.2656 33.601V22.7344H22.7344V33.601L23.1051 33.2302Z" fill="currentColor"/>
<path d="M36.6563 22.7344H27.7969V36.6563C27.7969 37.1679 27.4892 37.6302 27.0157 37.8254C26.8588 37.8909 26.6944 37.9219 26.5313 37.9219C26.2025 37.9219 25.8787 37.7934 25.6365 37.5511L24 35.9146L22.3636 37.5511C22.0001 37.9145 21.4588 38.0219 20.9842 37.8254C20.5108 37.6302 20.203 37.1679 20.203 36.6563V22.7344H19.4935L10.0781 28.1704V44.3344C10.0781 45.0339 10.6442 45.6 11.3438 45.6H36.6563C37.3558 45.6 37.9219 45.0339 37.9219 44.3344V24C37.9219 23.3004 37.3558 22.7344 36.6563 22.7344Z" fill="currentColor"/>
<path d="M33.6827 10.1575L31.1516 5.77334C30.9836 5.48292 30.7067 5.27029 30.3829 5.18381C30.0603 5.09851 29.713 5.14306 29.4225 5.30987L25.5288 7.55795C25.5319 6.67489 25.3226 5.71731 24.8692 4.93263C24.1931 3.76091 23.1018 2.92298 21.7954 2.57316C20.4914 2.22587 19.1257 2.40382 17.954 3.07865C16.3312 4.01673 15.361 5.76313 15.4252 7.63685L15.4339 7.90381C15.4339 7.91368 15.4339 7.92237 15.4352 7.93224L15.5588 11.6706L12.438 9.72597C12.4367 9.72471 12.4343 9.72352 12.433 9.72226L12.2056 9.58009C10.6137 8.59011 8.61885 8.55299 6.99362 9.49107C5.8219 10.1672 4.98398 11.2585 4.63416 12.5649C4.28434 13.8714 4.46363 15.2358 5.13965 16.4075C5.6016 17.2062 6.25188 17.8271 6.99961 18.2561L3.03348 20.4974C2.428 20.847 2.22069 21.621 2.57017 22.2265L5.18538 26.6109C5.53486 27.2162 6.30883 27.4237 6.91431 27.0742L33.2196 11.8864C33.8249 11.537 34.0322 10.7629 33.6827 10.1575ZM10.789 16.0682C9.57912 16.764 8.0289 16.3503 7.33213 15.142C6.63385 13.9332 7.05032 12.3808 8.25908 11.6838C9.0711 11.2129 10.071 11.2327 10.8658 11.7283L14.4434 13.9582L10.789 16.0682ZM22.93 8.20325C22.7559 8.85522 22.3372 9.40104 21.7522 9.73846L18.0966 11.849L17.954 7.55028C17.9231 6.6122 18.4089 5.73959 19.2196 5.27114C19.803 4.93128 20.4853 4.84353 21.1404 5.01776C21.7929 5.19326 22.3392 5.61227 22.6767 6.19808C23.0153 6.78407 23.1055 7.54943 22.93 8.20325Z" fill="currentColor"/>
</svg>
