<svg width="48" height="48" viewBox="0 0 48 48" fill="none" xmlns="http://www.w3.org/2000/svg">
<path d="M19.4401 34.9085H28.5602C31.0787 34.9085 33.1203 32.9602 33.1203 30.5569V25.2361C33.1203 24.4635 33.4419 23.7226 34.0143 23.1763C35.3406 21.9106 35.1682 19.8136 33.6513 18.7608L26.6822 13.9241C25.0832 12.8144 22.917 12.8144 21.318 13.9241L14.349 18.7608C12.832 19.8136 12.6596 21.9106 13.9859 23.1763C14.5584 23.7226 14.88 24.4635 14.88 25.2361V30.5569C14.88 32.9602 16.9216 34.9085 19.4401 34.9085Z" stroke="currentColor" stroke-width="1.63625"/>
<path d="M26.1818 28.3635C26.1818 29.5684 25.205 30.5451 24.0001 30.5451C22.7952 30.5451 21.8185 29.5684 21.8185 28.3635C21.8185 27.1586 22.7952 26.1818 24.0001 26.1818C25.205 26.1818 26.1818 27.1586 26.1818 28.3635Z" stroke="currentColor" stroke-width="1.63625"/>
</svg>
