<svg width="48" height="48" viewBox="0 0 48 48" fill="none" xmlns="http://www.w3.org/2000/svg">
<path fill-rule="evenodd" clip-rule="evenodd" d="M33.1197 30.5571C33.1197 32.9606 31.0779 34.909 28.5593 34.909H19.4386C16.9199 34.909 14.8782 32.9606 14.8782 30.5571V25.236C14.8782 24.4633 14.5565 23.7224 13.984 23.1761C12.6576 21.9103 12.8301 19.8131 14.3471 18.7602L21.3166 13.9232C22.9157 12.8134 25.0821 12.8134 26.6812 13.9232L33.6507 18.7602C35.1678 19.8131 35.3402 21.9103 34.0138 23.1761C33.4413 23.7224 33.1197 24.4633 33.1197 25.236V30.5571ZM23.9989 30.5454C25.2039 30.5454 26.1808 29.5685 26.1808 28.3635C26.1808 27.1586 25.2039 26.1817 23.9989 26.1817C22.794 26.1817 21.8171 27.1586 21.8171 28.3635C21.8171 29.5685 22.794 30.5454 23.9989 30.5454Z" fill="currentColor"/>
</svg>
