<svg width="48" height="48" viewBox="0 0 48 48" fill="none" xmlns="http://www.w3.org/2000/svg">
<path d="M34.5484 18.4913C33.8502 16.1242 31.8758 14.1498 29.5087 13.4516C27.7089 12.928 26.4653 12.9717 25.6035 13.6152C24.5673 14.3897 24.4473 15.786 24.4473 16.7787V19.4948C24.4473 22.1783 25.669 23.5418 28.0688 23.5418H31.1995C32.1813 23.5418 33.5884 23.4218 34.3629 22.3855C35.0283 21.5347 35.0829 20.2911 34.5484 18.4913Z" fill="currentColor"/>
<path d="M31.5389 25.4836C31.2553 25.1564 30.8408 24.9709 30.4154 24.9709H26.5102C24.5903 24.9709 23.0304 23.4111 23.0304 21.4912V17.586C23.0304 17.1606 22.845 16.7461 22.5177 16.4624C22.2014 16.1788 21.7651 16.0479 21.3505 16.1025C18.7871 16.4297 16.4309 17.8369 14.8928 19.9531C13.3438 22.0802 12.7766 24.6764 13.2675 27.2726C13.9765 31.0251 16.9763 34.0249 20.7397 34.7339C21.3396 34.8539 21.9396 34.9084 22.5395 34.9084C24.514 34.9084 26.4229 34.2976 28.0483 33.1086C30.1645 31.5705 31.5716 29.2143 31.8989 26.6508C31.9534 26.2254 31.8225 25.8 31.5389 25.4836Z" fill="currentColor"/>
</svg>
