<svg width="48" height="48" viewBox="0 0 48 48" fill="currentColor" xmlns="http://www.w3.org/2000/svg">
<path d="M39.2779 8.72251C31.1156 0.560042 18.0097 0.330133 9.53794 7.98352L9.56632 7.38383C9.60363 6.58894 8.98953 5.91449 8.19537 5.87646C7.41187 5.86738 6.72603 6.45324 6.688 7.24741L6.49382 11.3608C6.47552 11.7456 6.61194 12.1211 6.87224 12.4039C7.13327 12.6874 7.49614 12.8548 7.88018 12.8689L11.9521 13.018C11.9704 13.0187 11.988 13.0187 12.0056 13.0187C12.7771 13.0187 13.4158 12.4082 13.4447 11.6309C13.4735 10.8361 12.8525 10.1679 12.0576 10.1384L11.4682 10.1168C18.8098 3.48676 30.1682 3.68685 37.2409 10.7594C42.7477 16.2663 44.2705 24.7216 41.0308 31.7998C40.6995 32.5229 41.0174 33.3774 41.7412 33.7088C41.9354 33.7981 42.1394 33.8396 42.3398 33.8396C42.8856 33.8396 43.4082 33.528 43.6502 32.9983C47.3887 24.8321 45.6317 15.0762 39.2779 8.72251Z" fill="currentColor"/>
<path d="M39.983 35.3233L35.9132 35.1257C35.1156 35.0954 34.4438 35.7003 34.4044 36.4952C34.3663 37.2893 34.979 37.9652 35.7739 38.004L36.3649 38.0325C29.0188 44.5114 17.7765 44.2614 10.7567 37.2415C5.17043 31.6553 3.68971 23.1085 7.07308 15.9733C7.41348 15.2544 7.10679 14.3956 6.38797 14.0545C5.67116 13.7154 4.81102 14.0201 4.46918 14.7396C0.566073 22.9712 2.27382 32.8334 8.71975 39.2784C12.9323 43.491 18.4651 45.5969 23.9986 45.5969C29.1063 45.5969 34.1995 43.7794 38.2682 40.1903L38.2329 40.7878C38.1858 41.582 38.7914 42.2642 39.5855 42.3106C39.6143 42.3128 39.6431 42.3135 39.6721 42.3135C40.429 42.3135 41.0634 41.7233 41.1084 40.9581L41.3512 36.8475C41.3744 36.4635 41.2421 36.0865 40.9854 35.8001C40.728 35.5139 40.3677 35.3423 39.983 35.3233Z" fill="currentColor"/>
<path d="M24.001 9.5957C16.0637 9.5957 9.5957 16.0637 9.5957 24.001C9.5957 31.9383 16.0637 38.4063 24.001 38.4063C31.9383 38.4063 38.4063 31.9383 38.4063 24.001C38.4063 16.0637 31.9383 9.5957 24.001 9.5957ZM24.001 22.5605C26.3779 22.5605 28.3226 24.5052 28.3226 26.882C28.3226 28.7547 27.1125 30.3393 25.4415 30.9443V31.2036C25.4415 31.9959 24.7933 32.6442 24.001 32.6442C23.2087 32.6442 22.5605 31.9959 22.5605 31.2036V30.9443C20.8894 30.3393 19.6794 28.7547 19.6794 26.882C19.6794 26.0898 20.3276 25.4415 21.1199 25.4415C21.9122 25.4415 22.5605 26.0898 22.5605 26.882C22.5605 27.6743 23.2087 28.3226 24.001 28.3226C24.7933 28.3226 25.4415 27.6743 25.4415 26.882C25.4415 26.0898 24.7933 25.4415 24.001 25.4415C21.6241 25.4415 19.6794 23.4968 19.6794 21.1199C19.6794 19.2472 20.8894 17.6627 22.5605 17.0576V16.7983C22.5605 16.0061 23.2087 15.3578 24.001 15.3578C24.7933 15.3578 25.4415 16.0061 25.4415 16.7983V17.0576C27.1125 17.6627 28.3226 19.2472 28.3226 21.1199C28.3226 21.9122 27.6743 22.5605 26.882 22.5605C26.0898 22.5605 25.4415 21.9122 25.4415 21.1199C25.4415 20.3276 24.7933 19.6794 24.001 19.6794C23.2087 19.6794 22.5605 20.3276 22.5605 21.1199C22.5605 21.9122 23.2087 22.5605 24.001 22.5605Z" fill="currentColor"/>
</svg>
