<svg width="48" height="48" viewBox="0 0 48 48" fill="none" xmlns="http://www.w3.org/2000/svg">
<path d="M16.998 37.9995H15.998C7.99805 37.9995 3.99805 35.9995 3.99805 25.9995V15.9995C3.99805 7.99951 7.99805 3.99951 15.998 3.99951H31.998C39.998 3.99951 43.998 7.99951 43.998 15.9995V25.9995C43.998 33.9995 39.998 37.9995 31.998 37.9995H30.998C30.378 37.9995 29.778 38.2995 29.398 38.7995L26.398 42.7995C25.078 44.5595 22.918 44.5595 21.598 42.7995L18.598 38.7995C18.278 38.3595 17.538 37.9995 16.998 37.9995Z" stroke="currentColor" stroke-width="3" stroke-miterlimit="10" stroke-linecap="round" stroke-linejoin="round"/>
<path d="M31.9929 22H32.0109" stroke="currentColor" stroke-width="4" stroke-linecap="round" stroke-linejoin="round"/>
<path d="M23.991 22H24.0089" stroke="currentColor" stroke-width="4" stroke-linecap="round" stroke-linejoin="round"/>
<path d="M15.989 22H16.007" stroke="currentColor" stroke-width="4" stroke-linecap="round" stroke-linejoin="round"/>
</svg>
