<svg width="48" height="48" viewBox="0 0 48 48" fill="none" xmlns="http://www.w3.org/2000/svg">
<path d="M44.002 11.9995V16.8395C44.002 19.9995 42.0019 21.9995 38.8419 21.9995H32.002V8.01951C32.002 5.79951 33.822 3.99951 36.042 3.99951C38.222 4.01951 40.222 4.89951 41.662 6.33951C43.102 7.79951 44.002 9.79951 44.002 11.9995Z" stroke="currentColor" stroke-width="3" stroke-miterlimit="10" stroke-linecap="round" stroke-linejoin="round"/>
<path d="M3.99805 13.9995V41.9995C3.99805 43.6595 5.878 44.5995 7.198 43.5995L10.618 41.0395C11.418 40.4395 12.5381 40.5195 13.2581 41.2395L16.578 44.5795C17.358 45.3595 18.6381 45.3595 19.4181 44.5795L22.7781 41.2195C23.4781 40.5195 24.5981 40.4395 25.3781 41.0395L28.7981 43.5995C30.1181 44.5795 31.998 43.6395 31.998 41.9995V7.99951C31.998 5.79951 33.798 3.99951 35.998 3.99951H13.998H11.998C5.99805 3.99951 3.99805 7.57951 3.99805 11.9995V13.9995Z" stroke="currentColor" stroke-width="3" stroke-miterlimit="10" stroke-linecap="round" stroke-linejoin="round"/>
<path d="M12 18H24" stroke="currentColor" stroke-width="3" stroke-linecap="round" stroke-linejoin="round"/>
<path d="M13.5 26.0005H22.5" stroke="currentColor" stroke-width="3" stroke-linecap="round" stroke-linejoin="round"/>
</svg>
