<svg width="48" height="48" viewBox="0 0 48 48" fill="currentColor" xmlns="http://www.w3.org/2000/svg">
<path d="M35.3906 13.1577V26.4471L44.3344 19.8028L35.3906 13.1577Z" fill="currentColor"/>
<path d="M24.7593 37.5836C24.5343 37.753 24.2674 37.837 24.0004 37.837C23.7334 37.837 23.4665 37.753 23.2415 37.5836L2.40039 22.0165V44.3339C2.40039 45.0334 2.96646 45.5995 3.66602 45.5995H44.3348C45.0343 45.5995 45.6004 45.0334 45.6004 44.3339V22.0161L24.7593 37.5836Z" fill="currentColor"/>
<path d="M12.6101 26.4472V13.1577L3.66602 19.803L12.6101 26.4472Z" fill="currentColor"/>
<path d="M30.3281 2.3999C29.3225 2.3999 17.8221 2.3999 16.4062 2.3999C15.7073 2.3999 15.1406 2.96656 15.1406 3.66553V28.3456L24 34.9897L32.8594 28.3454V4.93115C32.8594 3.53314 31.7261 2.3999 30.3281 2.3999ZM25.2656 24.948V26.4468C25.2656 27.1463 24.6996 27.7124 24 27.7124C23.3004 27.7124 22.7344 27.1463 22.7344 26.4468V24.9512C22.2072 24.7648 21.7195 24.4748 21.313 24.0675C20.8211 23.5731 20.8211 22.771 21.3154 22.2778C21.8098 21.7859 22.6132 21.7835 23.1076 22.2803C23.8344 23.0083 25.2656 22.4225 25.2656 21.3843C25.2656 20.686 24.6971 20.1187 24 20.1187C21.9063 20.1187 20.2031 18.4155 20.2031 16.3218C20.2031 14.6739 21.2644 13.2823 22.7344 12.758V11.2593C22.7344 10.5597 23.3004 9.99365 24 9.99365C24.6996 9.99365 25.2656 10.5597 25.2656 11.2593V12.7548C25.7928 12.9413 26.2805 13.2313 26.687 13.6386C27.1789 14.1329 27.1789 14.9351 26.6846 15.4282C26.1902 15.9202 25.3868 15.9226 24.8924 15.4258C24.1656 14.6965 22.7344 15.2848 22.7344 16.3218C22.7344 17.0201 23.3029 17.5874 24 17.5874C26.0937 17.5874 27.7969 19.2906 27.7969 21.3843C27.7969 23.0321 26.7356 24.4238 25.2656 24.948Z" fill="currentColor"/>
</svg>
