<svg width="48" height="48" viewBox="0 0 48 48" fill="none" xmlns="http://www.w3.org/2000/svg">
<path d="M32.8359 20.9674C30.8615 20.9674 30.0543 19.5711 31.036 17.8585C31.6032 16.8658 31.2651 15.6005 30.2724 15.0332L28.3853 13.9533C27.5235 13.4406 26.4109 13.746 25.8982 14.6078L25.7782 14.8151C24.7964 16.5277 23.182 16.5277 22.1893 14.8151L22.0694 14.6078C21.5785 13.746 20.4658 13.4406 19.6041 13.9533L17.7169 15.0332C16.7243 15.6005 16.3861 16.8767 16.9533 17.8694C17.946 19.5711 17.1388 20.9674 15.1644 20.9674C14.0299 20.9674 13.0918 21.8946 13.0918 23.0399V24.9598C13.0918 26.0943 14.019 27.0324 15.1644 27.0324C17.1388 27.0324 17.946 28.4287 16.9533 30.1413C16.3861 31.1339 16.7243 32.3993 17.7169 32.9665L19.6041 34.0465C20.4658 34.5591 21.5785 34.2537 22.0912 33.392L22.2112 33.1847C23.1929 31.4721 24.8073 31.4721 25.8 33.1847L25.92 33.392C26.4327 34.2537 27.5453 34.5591 28.4071 34.0465L30.2942 32.9665C31.2869 32.3993 31.6251 31.123 31.0578 30.1413C30.0652 28.4287 30.8724 27.0324 32.8468 27.0324C33.9813 27.0324 34.9194 26.1052 34.9194 24.9598V23.0399C34.9085 21.9055 33.9813 20.9674 32.8359 20.9674ZM24.0001 27.5451C22.0475 27.5451 20.4549 25.9525 20.4549 23.9999C20.4549 22.0473 22.0475 20.4547 24.0001 20.4547C25.9527 20.4547 27.5453 22.0473 27.5453 23.9999C27.5453 25.9525 25.9527 27.5451 24.0001 27.5451Z" fill="currentColor"/>
</svg>
