<svg width="48" height="48" viewBox="0 0 48 48" fill="none" xmlns="http://www.w3.org/2000/svg">
<path d="M23.9993 27.2725C25.8068 27.2725 27.272 25.8073 27.272 23.9998C27.272 22.1923 25.8068 20.7271 23.9993 20.7271C22.1918 20.7271 20.7266 22.1923 20.7266 23.9998C20.7266 25.8073 22.1918 27.2725 23.9993 27.2725Z" stroke="currentColor" stroke-width="1.63636" stroke-miterlimit="10" stroke-linecap="round" stroke-linejoin="round"/>
<path d="M13.0918 24.9601V23.0401C13.0918 21.9056 14.0191 20.9674 15.1645 20.9674C17.1391 20.9674 17.9463 19.571 16.9536 17.8583C16.3863 16.8765 16.7245 15.6001 17.7173 15.0328L19.6045 13.9528C20.4663 13.4401 21.5791 13.7456 22.0918 14.6074L22.2118 14.8147C23.1936 16.5274 24.8082 16.5274 25.8009 14.8147L25.9209 14.6074C26.4336 13.7456 27.5463 13.4401 28.4082 13.9528L30.2954 15.0328C31.2882 15.6001 31.6263 16.8765 31.0591 17.8583C30.0663 19.571 30.8736 20.9674 32.8482 20.9674C33.9827 20.9674 34.9209 21.8947 34.9209 23.0401V24.9601C34.9209 26.0947 33.9936 27.0328 32.8482 27.0328C30.8736 27.0328 30.0663 28.4292 31.0591 30.1419C31.6263 31.1347 31.2882 32.4001 30.2954 32.9674L28.4082 34.0474C27.5463 34.5601 26.4336 34.2547 25.9209 33.3928L25.8009 33.1856C24.8191 31.4728 23.2045 31.4728 22.2118 33.1856L22.0918 33.3928C21.5791 34.2547 20.4663 34.5601 19.6045 34.0474L17.7173 32.9674C16.7245 32.4001 16.3863 31.1237 16.9536 30.1419C17.9463 28.4292 17.1391 27.0328 15.1645 27.0328C14.0191 27.0328 13.0918 26.0947 13.0918 24.9601Z" stroke="currentColor" stroke-width="1.63636" stroke-miterlimit="10" stroke-linecap="round" stroke-linejoin="round"/>
</svg>
