<svg width="48" height="48" viewBox="0 0 48 48" fill="currentColor" xmlns="http://www.w3.org/2000/svg">
<path d="M39.9214 17.9193C38.5814 16.4393 36.5614 15.5793 33.7614 15.2793V13.7593C33.7614 11.0193 32.6014 8.37931 30.5614 6.53931C28.5014 4.65931 25.8214 3.77931 23.0414 4.03931C18.2614 4.49931 14.2414 9.11931 14.2414 14.1193V15.2793C11.4414 15.5793 9.42144 16.4393 8.08144 17.9193C6.14144 20.0793 6.20144 22.9593 6.42144 24.9593L7.82144 36.0993C8.24144 39.9993 9.82144 43.9993 18.4214 43.9993H29.5814C38.1814 43.9993 39.7614 39.9993 40.1814 36.1193L41.5814 24.9393C41.8014 22.9593 41.8414 20.0793 39.9214 17.9193ZM23.3214 6.81931C25.3214 6.63931 27.2214 7.25931 28.7014 8.59931C30.1614 9.91931 30.9814 11.7993 30.9814 13.7593V15.1593H17.0214V14.1193C17.0214 10.5593 19.9614 7.13931 23.3214 6.81931ZM16.8414 26.2993H16.8214C15.7214 26.2993 14.8214 25.3993 14.8214 24.2993C14.8214 23.1993 15.7214 22.2993 16.8214 22.2993C17.9414 22.2993 18.8414 23.1993 18.8414 24.2993C18.8414 25.3993 17.9414 26.2993 16.8414 26.2993ZM30.8414 26.2993H30.8214C29.7214 26.2993 28.8214 25.3993 28.8214 24.2993C28.8214 23.1993 29.7214 22.2993 30.8214 22.2993C31.9414 22.2993 32.8414 23.1993 32.8414 24.2993C32.8414 25.3993 31.9414 26.2993 30.8414 26.2993Z" fill="currentColor"/>
</svg>
