<svg width="48" height="48" viewBox="0 0 48 48" fill="currentColor" xmlns="http://www.w3.org/2000/svg">
<path d="M11.25 25.75C10.2858 25.75 9.34329 26.0359 8.5416 26.5716C7.73991 27.1073 7.11507 27.8686 6.74609 28.7594C6.37711 29.6502 6.28057 30.6304 6.46867 31.5761C6.65678 32.5217 7.12108 33.3904 7.80286 34.0721C8.48464 34.7539 9.35328 35.2182 10.2989 35.4063C11.2446 35.5944 12.2248 35.4979 13.1156 35.1289C14.0064 34.7599 14.7677 34.1351 15.3034 33.3334C15.8391 32.5317 16.125 31.5892 16.125 30.625C16.1235 29.3325 15.6095 28.0934 14.6955 27.1795C13.7816 26.2655 12.5425 25.7515 11.25 25.75ZM11.25 32.875C10.805 32.875 10.37 32.743 9.99997 32.4958C9.62996 32.2486 9.34157 31.8972 9.17127 31.486C9.00098 31.0749 8.95642 30.6225 9.04323 30.186C9.13005 29.7496 9.34434 29.3487 9.65901 29.034C9.97368 28.7193 10.3746 28.505 10.811 28.4182C11.2475 28.3314 11.6999 28.376 12.111 28.5463C12.5222 28.7166 12.8736 29.005 13.1208 29.375C13.368 29.745 13.5 30.18 13.5 30.625C13.5 31.2217 13.2629 31.794 12.841 32.216C12.419 32.6379 11.8467 32.875 11.25 32.875Z" fill="currentColor"/>
<path d="M38.25 25.75C37.2858 25.75 36.3433 26.0359 35.5416 26.5716C34.7399 27.1073 34.1151 27.8686 33.7461 28.7594C33.3771 29.6502 33.2806 30.6304 33.4687 31.5761C33.6568 32.5217 34.1211 33.3904 34.8029 34.0721C35.4846 34.7539 36.3533 35.2182 37.2989 35.4063C38.2446 35.5944 39.2248 35.4979 40.1156 35.1289C41.0064 34.7599 41.7677 34.1351 42.3034 33.3334C42.8391 32.5317 43.125 31.5892 43.125 30.625C43.1235 29.3325 42.6095 28.0934 41.6955 27.1795C40.7816 26.2655 39.5425 25.7515 38.25 25.75ZM38.25 32.875C37.805 32.875 37.37 32.743 37 32.4958C36.63 32.2486 36.3416 31.8972 36.1713 31.486C36.001 31.0749 35.9564 30.6225 36.0432 30.186C36.1301 29.7496 36.3443 29.3487 36.659 29.034C36.9737 28.7193 37.3746 28.505 37.811 28.4182C38.2475 28.3314 38.6999 28.376 39.111 28.5463C39.5222 28.7166 39.8736 29.005 40.1208 29.375C40.368 29.745 40.5 30.18 40.5 30.625C40.5 31.2217 40.2629 31.794 39.841 32.216C39.419 32.6379 38.8467 32.875 38.25 32.875Z" fill="currentColor"/>
<path d="M44.7562 21.7225L36 20.125L28.5455 13.9399C27.8067 13.333 26.8804 13.0009 25.9243 13H14.9419C14.323 12.9985 13.7118 13.137 13.154 13.4051C12.5962 13.6732 12.1062 14.064 11.7207 14.5482L6.95925 20.125H3.75C2.8552 20.126 1.99733 20.4819 1.36461 21.1146C0.731891 21.7473 0.375993 22.6052 0.375 23.5V27.625C0.376216 28.7187 0.811203 29.7672 1.58453 30.5405C2.35785 31.3138 3.40636 31.7488 4.5 31.75H5.35734C5.19094 30.8821 5.21829 29.9882 5.43744 29.1321C5.6566 28.2761 6.06215 27.4789 6.62511 26.7978C7.18807 26.1166 7.89454 25.5682 8.69404 25.1918C9.49354 24.8153 10.3663 24.6201 11.25 24.6201C12.1337 24.6201 13.0065 24.8153 13.806 25.1918C14.6055 25.5682 15.3119 26.1166 15.8749 26.7978C16.4379 27.4789 16.8434 28.2761 17.0626 29.1321C17.2817 29.9882 17.3091 30.8821 17.1427 31.75H32.3573C32.1909 30.8821 32.2183 29.9882 32.4374 29.1321C32.6566 28.2761 33.0621 27.4789 33.6251 26.7978C34.1881 26.1166 34.8945 25.5682 35.694 25.1918C36.4935 24.8153 37.3663 24.6201 38.25 24.6201C39.1337 24.6201 40.0065 24.8153 40.806 25.1918C41.6055 25.5682 42.3119 26.1166 42.8749 26.7978C43.4379 27.4789 43.8434 28.2761 44.0626 29.1321C44.2817 29.9882 44.3091 30.8821 44.1427 31.75H44.25C45.1448 31.749 46.0027 31.3931 46.6354 30.7604C47.2681 30.1277 47.624 29.2698 47.625 28.375V25.0593C47.6291 24.2508 47.3411 23.468 46.814 22.855C46.2869 22.2419 45.5562 21.8398 44.7562 21.7225ZM16.875 19C16.875 19.2984 16.7565 19.5845 16.5455 19.7955C16.3345 20.0065 16.0484 20.125 15.75 20.125H10.8042C10.6967 20.1251 10.5913 20.0943 10.5008 20.0363C10.4102 19.9784 10.3381 19.8956 10.2931 19.798C10.248 19.7003 10.232 19.5918 10.2467 19.4852C10.2615 19.3787 10.3065 19.2786 10.3764 19.1969L13.6498 15.3625C13.7555 15.239 13.8867 15.1398 14.0344 15.0718C14.1821 15.0038 14.3428 14.9687 14.5054 14.9688H15.75C16.0484 14.9688 16.3345 15.0873 16.5455 15.2983C16.7565 15.5092 16.875 15.7954 16.875 16.0938V19ZM22.5 24.25H21C20.7016 24.25 20.4155 24.1315 20.2045 23.9205C19.9935 23.7095 19.875 23.4234 19.875 23.125C19.875 22.8266 19.9935 22.5405 20.2045 22.3295C20.4155 22.1185 20.7016 22 21 22H22.5C22.7984 22 23.0845 22.1185 23.2955 22.3295C23.5065 22.5405 23.625 22.8266 23.625 23.125C23.625 23.4234 23.5065 23.7095 23.2955 23.9205C23.0845 24.1315 22.7984 24.25 22.5 24.25ZM31.3574 20.1526L20.6224 20.1276C20.3245 20.1269 20.039 20.0081 19.8286 19.7972C19.6182 19.5863 19.5 19.3006 19.5 19.0026V16.0938C19.5 15.7954 19.6185 15.5092 19.8295 15.2983C20.0405 15.0873 20.3266 14.9688 20.625 14.9688H26.0201C26.273 14.9688 26.5185 15.054 26.717 15.2106L31.7071 19.1481C31.7991 19.2206 31.8662 19.3199 31.899 19.4323C31.9319 19.5446 31.9288 19.6645 31.8903 19.775C31.8518 19.8856 31.7798 19.9814 31.6843 20.0491C31.5887 20.1167 31.4745 20.1529 31.3574 20.1526Z" fill="currentColor"/>
</svg>
